PathFileType	4	(X/Y/Z)	c:/Users/goper/Files/vsCode/490R/osim_files/A04/A04_Slow_02.trc
DataRate	CameraRate	NumFrames	NumMarkers	Units                	OrigDataRate	OrigDataStartFrame	OrigNumFrames
120.00	120.00	8	36	mm	120.0	1340	2143
                Frame#	Time	LPSIS			LASIS			LTH1			LTH2			LTH3			LTH4			LLFE			LMFE			LSH1			LSH2			LSH3			LSH4			LLMAL			LMMAL			LCAL			LMTP5			LTOE			LMTP1			RPSIS			RASIS			RTH1			RTH2			RTH3			RTH4			RLFE			RMFE			RSH1			RSH2			RSH3			RSH4			RLMAL			RMMAL			RCAL			RMTP1			RTOE			RMTP5		
		X1	Y1	Z1	X2	Y2	Z2	X3	Y3	Z3	X4	Y4	Z4	X5	Y5	Z5	X6	Y6	Z6	X7	Y7	Z7	X8	Y8	Z8	X9	Y9	Z9	X10	Y10	Z10	X11	Y11	Z11	X12	Y12	Z12	X13	Y13	Z13	X14	Y14	Z14	X15	Y15	Z15	X16	Y16	Z16	X17	Y17	Z17	X18	Y18	Z18	X19	Y19	Z19	X20	Y20	Z20	X21	Y21	Z21	X22	Y22	Z22	X23	Y23	Z23	X24	Y24	Z24	X25	Y25	Z25	X26	Y26	Z26	X27	Y27	Z27	X28	Y28	Z28	X29	Y29	Z29	X30	Y30	Z30	X31	Y31	Z31	X32	Y32	Z32	X33	Y33	Z33	X34	Y34	Z34	X35	Y35	Z35	X36	Y36	Z36

1340	11.15833	-675.58942	1046.42883	353.51764	-900.59863	994.69965	426.79532	-745.92523	694.54944	449.61621	-740.68390	650.19836	446.62888	-806.76758	682.87982	444.37717	-793.81665	640.21527	442.07407	-724.05145	524.82800	432.61539	-752.59735	522.61346	295.34457	-668.85052	432.60150	428.43079	-664.66119	389.97275	425.83569	-729.17169	421.19336	422.39435	-717.18152	379.62540	418.78662	-575.60767	116.48201	373.95334	-605.70355	117.77375	291.42932	-516.03687	78.51740	312.85068	-709.72388	59.91265	420.14429	-764.23126	71.88403	364.05478	-750.82465	57.43605	318.63959	-669.62268	1034.51465	247.45343	-888.75348	1016.90289	141.93645	-893.05499	716.90509	103.63708	-913.89313	679.64069	103.55092	-946.31116	740.72998	94.57391	-964.37616	696.41736	98.56313	-1016.61670	573.02460	127.05988	-1013.17212	562.19849	248.61516	-1043.96863	340.28122	123.59774	-1067.28601	298.55066	129.05997	-1100.11829	363.14774	115.34940	-1114.09131	317.58102	117.86588	-1163.80786	129.37704	111.16653	-1193.67505	147.14629	243.27583	-1133.36548	51.44576	189.74217	-1333.97668	154.75177	211.21420	-1339.88708	187.52719	165.84723	-1318.30371	148.25243	94.19492
1341	11.16667	-684.82739	1044.42859	352.04941	-909.73560	993.33734	426.74677	-753.18060	693.90833	449.47711	-747.69861	649.60895	446.44833	-813.86438	681.93213	444.06967	-800.67407	639.38080	441.80569	-730.04694	524.27356	432.60083	-758.61487	521.70978	295.28955	-673.60229	432.83902	428.52759	-668.86957	390.04562	425.89990	-733.84717	420.57474	422.41455	-721.45581	379.14566	418.81281	-576.43683	117.49841	374.03201	-606.69391	118.59087	291.39236	-516.61688	80.01092	312.85928	-709.99640	59.84438	420.22815	-764.78198	71.65440	364.17307	-750.39709	56.78130	318.62314	-679.07458	1032.50415	246.12273	-898.56738	1014.93073	141.91640	-902.75586	714.88953	103.08242	-923.73187	677.63049	103.07166	-956.20215	738.72815	94.70924	-974.37640	694.62823	99.05338	-1026.59436	571.39343	127.13915	-1021.04834	559.69318	248.65161	-1052.13696	337.69873	123.14319	-1075.06348	295.90921	128.66077	-1108.43835	360.25897	115.37484	-1122.05774	314.56393	117.88046	-1170.32800	125.97637	111.18040	-1199.13342	143.22237	243.64621	-1138.42676	48.17560	189.31682	-1339.88196	149.80330	212.67912	-1346.39429	182.53696	167.59386	-1325.10999	143.57906	95.65736
1342	11.17500	-694.26117	1042.44897	350.69553	-918.96240	991.88788	426.66748	-760.53253	693.21588	449.39673	-754.74872	649.02722	446.27560	-821.09485	680.94983	443.66495	-807.64258	638.49341	441.35464	-736.24512	523.53351	432.48102	-764.70874	520.68793	295.25931	-678.66919	432.67685	428.56784	-673.25891	390.18481	426.13611	-738.75427	419.82639	422.46384	-725.75079	378.57037	418.87308	-577.42365	118.57688	374.18689	-607.75928	119.43938	291.33926	-517.25580	81.48923	312.91443	-710.30292	59.75546	420.38876	-765.35199	71.46542	364.29050	-750.76056	56.57676	318.71884	-688.65405	1030.36255	244.85222	-908.48419	1012.89478	141.89058	-913.16278	712.80334	102.49419	-934.17065	675.70435	102.69700	-966.52399	737.10333	94.97635	-984.59094	692.95386	99.35412	-1036.76111	569.70764	127.07978	-1029.87244	557.71686	248.52049	-1059.82324	335.35074	122.69397	-1082.10291	293.31558	128.26228	-1116.43958	357.31952	115.49644	-1129.35522	311.43289	118.10503	-1175.24451	122.29221	111.09665	-1202.85437	138.65523	244.14642	-1140.38855	47.22514	188.87242	-1343.98560	142.87253	214.69026	-1352.00952	175.78816	169.70834	-1330.66345	137.15894	97.53918
1343	11.18333	-703.93005	1040.40137	349.33530	-928.42462	990.37024	426.45975	-768.05682	692.58881	449.15509	-762.01672	648.43250	446.06601	-828.51794	679.93481	443.21350	-814.69055	637.61053	440.97348	-742.75446	522.89111	432.48767	-771.17883	519.61877	295.18213	-683.92694	432.74612	428.63034	-678.34265	390.03171	425.83511	-743.83179	418.98810	422.46869	-730.31384	377.99072	418.88095	-578.28571	119.84518	374.37180	-608.88318	120.37386	291.36935	-517.91766	83.11018	313.02271	-710.69238	59.65323	420.58185	-765.94073	71.19189	364.42770	-751.04669	56.34870	318.84705	-698.49811	1028.25342	243.54474	-918.49860	1010.92474	141.64542	-923.80225	710.93127	101.90054	-945.14886	673.91241	102.37675	-981.86401	736.95819	96.29507	-995.43469	691.50989	99.72784	-1047.04346	567.94055	126.90709	-1039.69067	555.94153	248.24255	-1066.74670	334.20691	122.41044	-1088.23218	291.78018	127.94206	-1123.73535	355.24594	115.74090	-1135.92188	309.15823	118.34937	-1178.73315	119.29754	111.25640	-1205.24622	134.80539	244.85023	-1141.49158	45.75919	188.76254	-1347.23633	136.13901	216.76674	-1356.48755	168.07915	172.23936	-1335.28882	130.94534	99.52503
1344	11.19167	-713.57147	1038.45862	348.05197	-937.94568	988.96600	426.03928	-775.70197	691.98975	448.79153	-769.39856	647.90704	445.73801	-835.84143	679.15991	442.95950	-822.02570	636.77216	440.51511	-749.42963	522.18555	432.45663	-777.87054	518.56006	295.15936	-689.54639	432.96414	428.51944	-683.46130	390.06650	425.79660	-749.09088	418.35007	422.53363	-735.08154	377.47900	418.82913	-579.40924	121.15932	374.55173	-610.09436	121.41596	291.36594	-518.40039	84.98493	313.15234	-711.08630	59.59829	420.75620	-766.46027	70.93549	364.56473	-751.32581	56.09920	318.93930	-708.57355	1026.70691	242.14587	-928.52704	1008.98383	141.09120	-934.71588	709.06244	101.49495	-956.03412	672.18365	102.16843	-991.59937	735.01190	96.19888	-1006.50317	689.84552	100.06622	-1057.31934	566.33301	126.76505	-1050.01624	554.38495	247.93320	-1072.92786	334.78082	122.11059	-1093.73596	292.03171	127.74903	-1130.21289	355.03815	116.03688	-1141.74792	308.75986	118.65115	-1181.66052	118.30461	111.46027	-1207.30408	133.16502	245.34294	-1142.55566	45.68294	188.52287	-1349.64319	132.13358	218.32732	-1360.07336	164.14362	174.01146	-1338.44666	127.45547	101.13642
1345	11.20000	-723.36108	1036.66541	346.73166	-947.56903	987.65326	425.47122	-783.55054	691.38544	448.35818	-777.05426	647.29022	445.32962	-843.73260	678.04926	442.25174	-829.48468	635.92963	440.13220	-756.35901	521.52307	432.34552	-784.79596	517.37219	294.97406	-695.06207	433.10577	428.59277	-688.71295	390.16003	425.61841	-754.70398	417.61575	422.35056	-740.12854	377.04196	418.75964	-580.68170	122.61715	374.79752	-611.42407	122.64219	291.37720	-519.18433	87.06941	313.18051	-711.45270	59.60612	420.89780	-767.01233	70.72523	364.64270	-751.60480	55.91776	319.07770	-718.44794	1024.38574	240.89525	-938.85699	1007.12659	140.31154	-945.42590	707.32062	101.18336	-966.90179	670.44696	102.04377	-1001.94965	733.26648	96.10970	-1017.29877	688.20422	100.27486	-1067.27844	564.66449	126.78059	-1060.90820	553.14484	247.38219	-1078.54553	337.03055	121.84789	-1098.53589	293.93118	127.56808	-1136.25256	356.30286	116.28738	-1146.84399	309.82123	118.91521	-1183.99512	118.52803	112.08162	-1208.84998	132.92438	245.72154	-1143.01013	46.52567	188.47879	-1351.16956	130.19351	219.51607	-1361.93713	162.20662	175.19403	-1340.24792	125.98003	102.04906
1346	11.20833	-733.25739	1034.78418	345.35596	-957.56311	986.36627	424.69827	-791.55945	690.82568	447.83188	-784.87921	646.76715	444.83759	-851.83850	677.23895	441.68839	-837.35883	635.09332	439.64142	-763.72205	520.84985	432.14786	-791.99854	516.18677	294.79807	-700.98804	433.46286	428.39374	-694.30432	390.33838	425.38977	-760.54785	416.96695	422.17209	-745.26282	376.52463	418.57730	-581.99176	124.40079	374.96594	-612.80652	124.05489	291.26093	-520.26837	89.39027	313.11258	-711.92969	59.65182	421.05884	-767.59698	70.43498	364.68524	-751.82477	55.74141	319.14624	-728.33136	1022.13184	239.62979	-949.34625	1005.44232	139.34996	-955.80908	705.55682	100.89192	-977.47571	668.68188	101.86499	-1012.35529	732.06976	97.12930	-1027.77100	686.59064	100.35651	-1076.57861	562.87854	126.63889	-1071.93201	552.17987	246.71806	-1084.20581	338.76727	121.65887	-1103.39075	295.29965	127.45375	-1142.14111	357.03394	116.62518	-1152.10071	310.41129	119.21552	-1185.71997	118.62753	112.19998	-1210.72815	132.32985	246.11525	-1143.55786	47.16799	188.59566	-1352.47864	128.36974	220.49115	-1363.52502	160.44678	176.09575	-1341.62048	124.81512	102.72058
1347	11.21667	-742.96960	1032.88074	344.08997	-967.34131	984.95404	423.66714	-799.87781	690.19366	447.21362	-792.71289	646.28461	444.27036	-859.97461	676.34070	441.13998	-845.34003	634.27002	439.09354	-771.40448	520.11639	431.90247	-799.52618	514.95837	294.47546	-707.38605	433.76367	428.16052	-700.02203	390.57816	425.08652	-766.50018	416.33191	421.91455	-750.72998	376.16721	418.41699	-583.54846	126.19505	375.02048	-614.42682	125.55021	291.27890	-521.29883	92.04777	313.11728	-712.44495	59.73476	421.29953	-767.26520	69.48240	365.05090	-752.23346	55.62001	319.26767	-738.42755	1020.04858	238.25029	-959.78442	1003.84460	138.32599	-965.94098	703.68927	100.86686	-987.46057	666.91687	101.77451	-1022.47192	730.22363	96.80289	-1037.83081	684.70074	100.44142	-1085.67834	561.34283	126.30024	-1082.71301	551.32440	245.78214	-1090.49780	338.48645	121.43107	-1108.97266	294.84213	127.25902	-1148.90674	355.93750	116.77794	-1157.99463	309.06409	119.31328	-1189.09839	116.65636	112.61529	-1213.45679	130.16060	246.45979	-1145.07874	46.88625	188.78224	-1354.84656	124.67276	220.96953	-1366.84619	157.15276	176.88663	-1344.30591	121.43308	103.77012
